<svg xmlns="http://www.w3.org/2000/svg" version="1.1" xmlns:xlink="http://www.w3.org/1999/xlink" xmlns:svgjs="http://svgjs.dev/svgjs" width="1000" height="1000" viewBox="0 0 1000 1000"><rect width="1000" height="1000" fill="#ffffff"></rect><g transform="matrix(0.7,0,0,0.7,150,150)"><svg viewBox="0 0 280 280" data-background-color="#046380" preserveAspectRatio="xMidYMid meet" height="1000" width="1000" xmlns="http://www.w3.org/2000/svg" xmlns:xlink="http://www.w3.org/1999/xlink"><g id="tight-bounds" transform="matrix(1,0,0,1,0,0)"><svg viewBox="0 0 280 280" height="280" width="280"><g><svg viewBox="0 0 280 280" height="280" width="280"><g><svg viewBox="0 0 280 280" height="280" width="280"><g id="textblocktransform"><svg viewBox="0 0 280 280" height="280" width="280" id="textblock"><g><svg viewBox="0 0 280 280" height="280" width="280"><g transform="matrix(1,0,0,1,57.50420886156945,57.50420886156945)"><svg viewBox="0 0 164.9915822768611 164.9915822768611" height="164.9915822768611" width="164.9915822768611"><g><circle r="82" cx="82.49579113843055" cy="82.49579113843055" fill="#000000" data-fill-palette-color="accent"></circle><svg xmlns="http://www.w3.org/2000/svg" xmlns:xlink="http://www.w3.org/1999/xlink" version="1.1" x="24.748737341529164" y="24.74873734152917" viewBox="18.134002685546875 19.195999145507812 56.11164093017578 62.76300048828125" enable-background="new 0 0 100 100" xml:space="preserve" height="115.49410759380275" width="115.49410759380275" class="icon-o-0" data-fill-palette-color="quaternary" id="o-0"><path fill="#ffffff" d="M74.245 21.972c0-1.518-1.231-2.749-2.75-2.749l-36.412-0.027c-1.519 0-2.748 1.231-2.748 2.749v37.964c-0.949-0.263-1.947-0.399-2.979-0.399-6.198 0-11.222 5.024-11.222 11.223 0 6.199 5.024 11.226 11.222 11.226 6.046 0 11.215-4.677 11.215-10.769 0.007-0.073 0.022-30.853 0.022-30.853 0.01-0.791 0.651-1.429 1.445-1.429l-0.001-0.001 22.602 0.01C65.398 38.962 66 39.585 66 40.355l0.005-0.017v17.051c-0.948-0.262-1.946-0.397-2.978-0.397-6.198 0-11.226 5.022-11.226 11.223 0 6.198 5.025 11.226 11.226 11.226 6.045 0 10.974-4.78 11.214-10.769C74.248 68.598 74.245 21.972 74.245 21.972z" data-fill-palette-color="quaternary"></path></svg></g></svg></g><path d="M40.825 188.152l-6.185-17.918 1.194-0.413 6.185 17.919zM38.436 188.977l-6.185-17.919 1.194-0.412 6.185 17.918zM31.511 176.661l-1.649-4.778 1.194-0.412 6.185 17.918-1.194 0.412-1.65-4.778-21.511 7.425-0.413-1.194 21.512-7.426-0.412-1.194-21.512 7.425-0.412-1.194 21.511-7.426-0.412-1.194-21.512 7.425-0.412-1.195 21.512-7.425-0.413-1.194-21.511 7.425-0.413-1.195zM38.435 211.847l1.032-0.73 4.4 6.224c0.666 0.942 1.537 1.525 2.613 1.748 1.075 0.223 2.177-0.064 3.303-0.861v0c0.834-0.59 1.338-1.462 1.513-2.618 0.18-1.159-0.04-2.177-0.661-3.055v0l-6.267-8.864-18.582 13.139-0.729-1.032 19.613-13.868 6.997 9.896c0.823 1.165 1.116 2.497 0.877 3.998-0.239 1.501-0.916 2.646-2.031 3.435v0c-1.376 0.973-2.785 1.323-4.228 1.052-1.434-0.27-2.584-1.017-3.45-2.241v0zM36.371 213.306l1.032-0.729 4.401 6.223c1.053 1.49 2.482 2.401 4.285 2.734 1.8 0.328 3.518-0.087 5.153-1.243v0c1.403-0.992 2.251-2.412 2.545-4.261 0.293-1.849-0.069-3.493-1.088-4.934v0l-7.727-10.927-20.645 14.597-0.729-1.032 21.676-15.327 8.457 11.96c0.804 1.137 1.266 2.411 1.386 3.821 0.129 1.412-0.088 2.76-0.651 4.043-0.563 1.284-1.394 2.314-2.494 3.092v0c-1.885 1.333-3.908 1.809-6.07 1.428-2.171-0.382-3.881-1.456-5.13-3.221v0zM34.308 214.765l1.031-0.729 4.401 6.223c0.946 1.338 2.155 2.347 3.628 3.029 1.464 0.679 3.029 0.946 4.696 0.798 1.667-0.147 3.213-0.724 4.638-1.731v0c1.289-0.912 2.258-2.109 2.908-3.592 0.649-1.483 0.908-3.043 0.774-4.679-0.143-1.638-0.683-3.12-1.621-4.447v0l-9.186-12.991-22.709 16.057-0.73-1.032 23.741-16.787 9.915 14.023c1.061 1.5 1.672 3.181 1.834 5.041 0.165 1.865-0.123 3.646-0.867 5.341-0.747 1.69-1.857 3.056-3.33 4.098v0c-1.701 1.203-3.454 1.894-5.26 2.074-1.806 0.18-3.517-0.097-5.133-0.831v0l-5.94 8.197-0.77-1.088 5.533-7.739c-0.42-0.272-0.728-0.489-0.923-0.651v0l-5.339 7.358-0.77-1.089 5.135-7.129c-0.083-0.071-0.335-0.352-0.755-0.843v0l-5.11 6.94-0.77-1.088 5.103-6.899-0.66-0.934-5.172 6.801-0.77-1.089 5.166-6.809zM43.763 207.214l-16.517 11.68-0.73-1.032 17.549-12.409 5.538 7.832c0.452 0.639 0.623 1.347 0.514 2.123-0.108 0.767-0.462 1.363-1.063 1.788v0c-1.663 1.176-3.048 0.981-4.155-0.585v0l-4.4-6.223 1.031-0.73 4.401 6.224c0.291 0.412 0.627 0.657 1.009 0.737 0.376 0.084 0.837-0.068 1.384-0.455v0c0.336-0.237 0.525-0.562 0.567-0.974 0.051-0.41-0.055-0.802-0.319-1.175v0zM69.868 249.174l-4.358-3.075 1.143-0.74 3.529 2.49zM69.235 251.832l-5.993-4.228 1.127-0.751 5.155 3.637zM68.582 254.465l-7.602-5.363 1.127-0.752 6.773 4.779zM75.207 229.888l-24.619 16.131-1.122-0.792 26.161-17.125 1.122 0.791-7.38 30.378-1.106-0.781zM51.693 246.799l21.912-14.364-0.344 1.73-20.462 13.414zM53.913 248.365l18.916-12.397-0.459 1.807-17.335 11.382zM56.141 249.937l15.77-10.355-0.476 1.831-14.189 9.304zM83.4 233.586l-7.364 30.389-1.122-0.792 7.38-30.377zM80.074 231.24l1.106 0.78-7.364 30.389-1.105-0.781zM77.847 229.668l1.105 0.78-7.363 30.389-1.122-0.792zM108.536 267.791l-8.29-2.389 3.851-13.367c0 0 2.763 0.796 8.29 2.388v0c1.339 0.386 2.3 1.374 2.884 2.965 0.58 1.582 0.605 3.291 0.076 5.127v0c-0.531 1.842-1.463 3.279-2.795 4.31-1.339 1.029-2.678 1.351-4.016 0.966zM104.962 253.599l-3.152 10.939 7.076 2.038c1.001 0.288 2.012 0 3.035-0.865 1.022-0.865 1.75-2.05 2.183-3.554v0c0.437-1.517 0.452-2.911 0.045-4.181-0.407-1.27-1.111-2.05-2.112-2.338v0zM103.233 250.471l-4.551 15.795 9.504 2.739c1.676 0.483 3.34 0.124 4.991-1.078 1.656-1.194 2.797-2.877 3.423-5.051v0c0.411-1.428 0.515-2.83 0.311-4.208-0.212-1.373-0.685-2.548-1.417-3.525-0.735-0.971-1.654-1.616-2.757-1.934v0zM107.836 270.219l-10.719-3.088 5.251-18.224 10.719 3.088c1.313 0.378 2.42 1.136 3.322 2.272 0.908 1.138 1.494 2.505 1.759 4.1 0.265 1.595 0.16 3.218-0.315 4.87v0c-0.474 1.645-1.247 3.072-2.321 4.281-1.075 1.216-2.3 2.064-3.674 2.545-1.368 0.483-2.708 0.535-4.022 0.156zM101.504 247.342l-5.951 20.653 11.933 3.439c1.536 0.443 3.1 0.393 4.693-0.15 1.586-0.544 3.002-1.493 4.247-2.846 1.241-1.361 2.131-2.976 2.67-4.843v0c0.534-1.855 0.639-3.692 0.314-5.512-0.333-1.815-1.029-3.376-2.089-4.682-1.06-1.306-2.354-2.18-3.884-2.62v0zM107.136 272.648l-13.147-3.788 6.651-23.082 13.147 3.788c1.753 0.505 3.239 1.492 4.459 2.962 1.221 1.463 2.028 3.215 2.421 5.254 0.386 2.037 0.28 4.095-0.319 6.174-0.599 2.078-1.604 3.877-3.015 5.396-1.418 1.518-3.033 2.571-4.845 3.16-1.815 0.596-3.598 0.641-5.352 0.136zM99.775 244.214l-7.35 25.51 14.361 4.138c1.472 0.424 2.991 0.496 4.557 0.215 1.565-0.281 3.012-0.844 4.339-1.69 1.328-0.846 2.522-1.973 3.583-3.379 1.055-1.408 1.83-2.973 2.326-4.694 0.496-1.721 0.671-3.455 0.526-5.202-0.152-1.749-0.564-3.338-1.236-4.768-0.672-1.429-1.596-2.679-2.772-3.75-1.176-1.071-2.5-1.818-3.972-2.242v0zM106.436 275.076v0l-15.575-4.487 8.05-27.939 15.576 4.488c2.193 0.632 4.059 1.846 5.598 3.642 1.54 1.797 2.567 3.933 3.083 6.408 0.509 2.473 0.401 4.969-0.324 7.487v0c-0.544 1.887-1.399 3.598-2.566 5.132-1.167 1.535-2.488 2.766-3.964 3.694-1.469 0.93-3.074 1.541-4.815 1.833-1.737 0.3-3.424 0.215-5.063-0.258zM156.517 278.841l-0.587-10.591 1.129-2.454 0.72 12.975zM159.041 278.701l-0.856-15.429 1.139-2.455 0.988 17.814zM161.574 278.561l-1.12-20.199 1.129-2.464 1.253 22.593zM160.888 249.479l-8.409 18.365-0.788-1.272 7.776-17.015zM158.027 249.637l-7.151 15.535-0.809-1.291 6.529-14.164zM143.194 279.58l-0.712-12.836 1.394 2.314 0.58 10.452zM140.67 279.72l-0.978-17.635 1.394 2.314 0.846 15.251zM138.147 279.86l-1.245-22.444 1.395 2.335 1.112 20.039zM135.434 250.89l12.496 20.833-1.42 0.079-11.102-18.499 1.477 26.627-1.262 0.07-1.61-29.031zM138.305 250.731l12.487 20.834-1.441 0.08-12.477-20.835zM164.098 278.421l-1.477-26.627-8.988 19.613-1.44 0.08-12.467-20.835 1.421-0.079 11.707 19.542 9.455-20.715 1.44-0.08 1.61 29.031zM196.187 254.147v0l-6.31-15.017 1.175-0.494 6.309 15.018c0.691 1.645 0.633 3.321-0.176 5.028-0.806 1.713-2.114 2.95-3.924 3.71-1.816 0.763-3.618 0.833-5.406 0.209-1.779-0.62-3.014-1.752-3.704-3.397v0l-6.31-15.018 1.165-0.489 6.31 15.017c0.555 1.321 1.561 2.226 3.018 2.715 1.454 0.497 2.933 0.43 4.438-0.202 1.498-0.63 2.582-1.639 3.25-3.028 0.665-1.38 0.72-2.731 0.165-4.052zM198.526 253.164v0l-6.309-15.017 1.165-0.49 6.309 15.018c0.473 1.125 0.685 2.299 0.637 3.52-0.051 1.216-0.317 2.364-0.798 3.444-0.488 1.083-1.191 2.072-2.109 2.969-0.916 0.903-1.976 1.607-3.181 2.114-1.211 0.509-2.459 0.774-3.745 0.796-1.283 0.028-2.482-0.162-3.597-0.572-1.109-0.412-2.115-1.026-3.018-1.84-0.9-0.824-1.586-1.798-2.059-2.923v0l-6.31-15.018 1.165-0.489 6.31 15.017c0.54 1.284 1.386 2.332 2.539 3.143 1.157 0.802 2.466 1.27 3.926 1.405 1.46 0.135 2.893-0.093 4.3-0.684 1.401-0.588 2.563-1.451 3.488-2.588 0.925-1.137 1.507-2.399 1.744-3.788 0.235-1.394 0.082-2.733-0.457-4.017zM200.856 252.185v0l-6.309-15.017 1.165-0.49 6.309 15.018c0.604 1.437 0.882 2.939 0.836 4.506-0.049 1.561-0.377 3.026-0.982 4.395-0.605 1.369-1.486 2.628-2.644 3.776-1.158 1.149-2.495 2.041-4.012 2.679-1.523 0.64-3.1 0.971-4.73 0.995-1.625 0.021-3.141-0.231-4.549-0.755-1.401-0.527-2.677-1.318-3.825-2.376-1.146-1.066-2.02-2.317-2.625-3.754v0l-6.309-15.018 1.165-0.489 6.309 15.017c0.717 1.706 1.834 3.097 3.351 4.173 1.514 1.069 3.222 1.701 5.124 1.894 1.904 0.2 3.771-0.084 5.6-0.852 1.823-0.766 3.329-1.899 4.519-3.399 1.193-1.494 1.937-3.156 2.233-4.986 0.3-1.838 0.091-3.611-0.626-5.317zM203.186 251.206v0l-6.309-15.017 1.165-0.49 6.309 15.018c0.982 2.336 1.278 4.755 0.891 7.257-0.379 2.505-1.369 4.774-2.969 6.805-1.603 2.041-3.628 3.575-6.075 4.603-2.452 1.03-4.966 1.403-7.539 1.117-2.577-0.277-4.893-1.157-6.948-2.639-2.058-1.474-3.578-3.379-4.56-5.715v0l-6.309-15.018 1.165-0.489 6.309 15.017c0.668 1.59 1.638 2.974 2.91 4.153 1.272 1.178 2.686 2.059 4.241 2.643 1.549 0.587 3.226 0.871 5.032 0.854 1.797-0.021 3.534-0.384 5.21-1.088 1.67-0.701 3.144-1.688 4.423-2.959 1.27-1.275 2.241-2.672 2.912-4.192 0.665-1.517 1.022-3.142 1.071-4.875 0.049-1.733-0.261-3.395-0.929-4.985zM220.786 231.913v0l-1.614 1.389c-0.684 0.588-1.326 0.839-1.926 0.752-0.605-0.092-1.156-0.428-1.653-1.006v0c-1.099-1.277-0.693-2.738 1.217-4.382v0c1.79-1.54 3.367-2.434 4.731-2.679v0l-0.263 1.25c-0.87 0.25-2.085 1.046-3.643 2.387v0c-0.764 0.658-1.204 1.185-1.318 1.58-0.119 0.391-0.048 0.737 0.211 1.039 0.26 0.302 0.533 0.477 0.821 0.528 0.284 0.045 0.616-0.097 0.999-0.426v0l1.652-1.422c1.197-1.03 2.453-1.752 3.768-2.166 1.316-0.423 2.586-0.549 3.81-0.377 1.229 0.167 2.403 0.571 3.522 1.209 1.119 0.63 2.131 1.47 3.035 2.521v0c0.731 0.85 1.305 1.761 1.722 2.732 0.416 0.972 0.658 1.985 0.724 3.039 0.067 1.054-0.04 2.104-0.32 3.151-0.276 1.052-0.77 2.111-1.48 3.177-0.71 1.066-1.611 2.069-2.702 3.008v0c-1.715 1.476-3.541 2.597-5.481 3.364-1.944 0.772-3.814 1.116-5.609 1.033v0l0.276-1.235c1.61 0.041 3.289-0.301 5.037-1.026 1.748-0.725 3.398-1.756 4.952-3.094v0c1.212-1.043 2.157-2.162 2.834-3.357 0.682-1.191 1.076-2.365 1.182-3.524 0.111-1.163-0.009-2.294-0.36-3.393-0.36-1.099-0.94-2.114-1.74-3.045v0c-1.064-1.237-2.271-2.141-3.621-2.712-1.359-0.572-2.812-0.731-4.36-0.475-1.552 0.251-3.02 0.971-4.403 2.16zM219.996 234.26v0l1.517-1.304c1.8-1.549 3.682-2.21 5.645-1.983 1.963 0.227 3.648 1.158 5.054 2.792v0c1.428 1.659 2.021 3.538 1.779 5.637-0.247 2.103-1.434 4.07-3.561 5.9v0c-1.423 1.225-2.919 2.171-4.489 2.838-1.565 0.673-3.063 1.008-4.492 1.004v0l0.228-1.246c1.24-0.034 2.555-0.361 3.947-0.981 1.382-0.621 2.71-1.479 3.982-2.573v0c1.871-1.61 2.916-3.288 3.136-5.036 0.211-1.748-0.285-3.321-1.488-4.719v0c-1.194-1.388-2.596-2.177-4.204-2.368-1.609-0.191-3.185 0.377-4.728 1.706v0l-1.501 1.291c-1.297 1.116-2.573 1.597-3.827 1.442-1.259-0.151-2.377-0.794-3.355-1.931-0.978-1.136-1.372-2.403-1.182-3.8 0.194-1.401 1.096-2.794 2.705-4.179v0c1.126-0.969 2.285-1.739 3.475-2.308 1.19-0.569 2.312-0.883 3.365-0.94v0l-0.255 1.244c-1.769 0.192-3.689 1.179-5.761 2.962v0c-1.343 1.155-2.096 2.263-2.26 3.323-0.159 1.056 0.131 2.014 0.871 2.874v0c0.749 0.87 1.577 1.369 2.484 1.498 0.908 0.129 1.879-0.252 2.916-1.143zM221.652 236.184v0l1.463-1.26c1.297-1.116 2.577-1.597 3.84-1.44 1.262 0.165 2.376 0.808 3.341 1.929v0c0.978 1.136 1.372 2.403 1.183 3.8-0.194 1.401-1.094 2.792-2.698 4.173v0c-1.126 0.969-2.29 1.743-3.49 2.321-1.195 0.574-2.317 0.887-3.365 0.94v0l0.248-1.238c1.769-0.192 3.697-1.186 5.783-2.981v0c1.338-1.151 2.088-2.257 2.253-3.317 0.159-1.056-0.131-2.014-0.872-2.873-0.74-0.86-1.566-1.357-2.477-1.491-0.917-0.13-1.896 0.253-2.937 1.148v0l-1.448 1.246c-1.82 1.566-3.71 2.243-5.67 2.031-1.96-0.203-3.655-1.135-5.082-2.794-1.428-1.659-2.021-3.538-1.779-5.637 0.247-2.103 1.437-4.072 3.568-5.906v0c1.418-1.22 2.909-2.162 4.474-2.826 1.565-0.673 3.06-1.005 4.484-0.998v0l-0.227 1.246c-1.24 0.034-2.55 0.357-3.932 0.969-1.382 0.621-2.707 1.476-3.975 2.566v0c-1.876 1.614-2.921 3.292-3.136 5.036-0.216 1.752 0.277 3.328 1.48 4.726v0c1.199 1.393 2.602 2.18 4.212 2.361 1.609 0.191 3.195-0.386 4.759-1.731zM223.3 238.099v0l1.463-1.259c0.684-0.588 1.328-0.837 1.933-0.744 0.609 0.097 1.158 0.43 1.647 0.998v0c1.099 1.277 0.696 2.736-1.21 4.376v0c-1.805 1.553-3.39 2.453-4.754 2.699v0l0.271-1.257c0.865-0.246 2.085-1.046 3.659-2.4v0c0.759-0.653 1.196-1.178 1.31-1.574 0.119-0.391 0.048-0.737-0.211-1.039v0c-0.255-0.297-0.529-0.468-0.823-0.513-0.293-0.045-0.633 0.098-1.02 0.432v0l-1.441 1.239c-1.222 1.051-2.501 1.802-3.837 2.253-1.332 0.455-2.618 0.603-3.858 0.444-1.235-0.154-2.417-0.546-3.546-1.176-1.133-0.635-2.158-1.486-3.075-2.552v0c-0.731-0.85-1.308-1.758-1.729-2.726-0.416-0.972-0.658-1.985-0.725-3.039-0.067-1.054 0.04-2.104 0.321-3.151 0.276-1.052 0.77-2.111 1.48-3.177 0.715-1.071 1.618-2.075 2.71-3.014v0c1.71-1.471 3.534-2.59 5.473-3.358 1.934-0.763 3.801-1.105 5.601-1.026v0l-0.283 1.241c-1.61-0.041-3.287 0.299-5.03 1.02-1.743 0.721-3.388 1.748-4.937 3.081v0c-1.217 1.047-2.164 2.169-2.842 3.364-0.682 1.191-1.076 2.365-1.181 3.524-0.106 1.159 0.017 2.287 0.367 3.386 0.355 1.104 0.932 2.121 1.733 3.051v0c1.077 1.252 2.298 2.162 3.662 2.73 1.373 0.569 2.84 0.711 4.399 0.429 1.564-0.287 3.056-1.041 4.473-2.262zM254.569 221.107l-23.287-17.409 0.756-1.012 23.288 17.409zM253.056 223.132l-23.288-17.409 0.757-1.012 23.287 17.409zM251.543 225.156l-23.288-17.409 0.757-1.012 23.287 17.409zM250.029 227.18l-23.287-17.409 0.756-1.012 23.288 17.409zM254.058 178.269v0l0.246 1.217c-1.112 0.235-2.11 0.718-2.994 1.447-0.886 0.735-1.551 1.65-1.996 2.744v0c-0.724 1.782-0.711 3.556 0.039 5.322 0.748 1.772 2.01 3.019 3.786 3.741 1.776 0.722 3.55 0.709 5.322-0.039 1.769-0.742 3.016-2.004 3.74-3.786v0c0.445-1.094 0.603-2.215 0.475-3.362-0.13-1.141-0.509-2.183-1.136-3.126v0l1.065-0.663c0.738 1.109 1.18 2.338 1.326 3.687 0.147 1.348-0.04 2.662-0.559 3.94v0c-0.42 1.032-1.022 1.933-1.807 2.702-0.782 0.778-1.652 1.369-2.612 1.775-0.959 0.405-1.992 0.619-3.096 0.642-1.096 0.02-2.161-0.18-3.194-0.599-1.032-0.42-1.935-1.019-2.706-1.799-0.775-0.788-1.366-1.661-1.771-2.62-0.405-0.959-0.616-1.99-0.633-3.093-0.026-1.099 0.171-2.165 0.59-3.197v0c0.524-1.291 1.313-2.367 2.365-3.228 1.052-0.861 2.235-1.43 3.55-1.705zM253.508 175.79v0l0.239 1.236c-1.501 0.328-2.854 0.988-4.06 1.98-1.205 0.992-2.11 2.232-2.714 3.72v0c-0.649 1.598-0.853 3.226-0.611 4.886 0.24 1.666 0.873 3.165 1.899 4.499 1.026 1.334 2.335 2.324 3.926 2.97 1.592 0.647 3.22 0.851 4.886 0.611 1.666-0.24 3.165-0.873 4.499-1.899 1.331-1.02 2.321-2.329 2.971-3.926v0c0.604-1.487 0.819-3.011 0.644-4.572-0.175-1.561-0.689-2.983-1.542-4.268v0l1.054-0.689c0.974 1.463 1.557 3.075 1.751 4.836 0.191 1.768-0.054 3.49-0.736 5.168v0c-0.732 1.801-1.854 3.285-3.368 4.453-1.513 1.168-3.211 1.885-5.095 2.151-1.892 0.269-3.739 0.038-5.539-0.694-1.801-0.732-3.285-1.854-4.454-3.367-1.164-1.504-1.881-3.203-2.15-5.095-0.269-1.892-0.038-3.739 0.694-5.54v0c0.682-1.678 1.708-3.083 3.078-4.216 1.367-1.127 2.91-1.875 4.628-2.244zM252.998 173.317v0l0.243 1.226c-1.914 0.411-3.637 1.25-5.169 2.518-1.532 1.268-2.679 2.839-3.441 4.713v0c-0.612 1.506-0.907 3.068-0.885 4.689 0.031 1.616 0.339 3.12 0.927 4.512 0.593 1.394 1.459 2.666 2.595 3.815 1.139 1.143 2.462 2.021 3.968 2.633 1.506 0.612 3.065 0.906 4.679 0.881 1.616-0.031 3.123-0.338 4.521-0.923 1.392-0.587 2.662-1.449 3.812-2.586 1.146-1.145 2.025-2.471 2.636-3.977v0c0.767-1.887 1.039-3.817 0.817-5.79-0.222-1.973-0.872-3.774-1.951-5.401v0l1.074-0.659c1.194 1.803 1.908 3.79 2.142 5.962 0.234 2.172-0.069 4.293-0.911 6.364v0c-0.904 2.225-2.29 4.057-4.156 5.496-1.867 1.44-3.967 2.326-6.301 2.66-2.334 0.333-4.613 0.048-6.838-0.857-2.225-0.904-4.057-2.29-5.496-4.156-1.44-1.867-2.326-3.967-2.66-6.301-0.333-2.334-0.048-4.613 0.856-6.838v0c0.847-2.083 2.119-3.822 3.817-5.215 1.698-1.394 3.605-2.316 5.721-2.766zM252.445 170.847v0l0.239 1.236c-2.315 0.498-4.396 1.514-6.244 3.047-1.845 1.527-3.229 3.425-4.15 5.693v0c-0.742 1.825-1.093 3.712-1.055 5.661 0.03 1.953 0.402 3.776 1.117 5.47 0.715 1.694 1.76 3.236 3.136 4.626 1.378 1.384 2.977 2.445 4.796 3.184 1.819 0.739 3.705 1.094 5.658 1.064 1.955-0.036 3.78-0.412 5.474-1.126 1.694-0.715 3.233-1.762 4.616-3.14 1.387-1.37 2.452-2.967 3.194-4.792v0c0.922-2.268 1.249-4.598 0.982-6.991-0.266-2.393-1.054-4.578-2.362-6.556v0l1.101-0.648c1.407 2.14 2.25 4.506 2.53 7.097 0.279 2.591-0.081 5.115-1.081 7.574v0c-0.807 1.985-1.964 3.724-3.473 5.215-1.509 1.492-3.182 2.624-5.02 3.395-1.841 0.777-3.819 1.187-5.935 1.229-2.122 0.04-4.175-0.343-6.16-1.15-1.985-0.807-3.724-1.964-5.215-3.473-1.486-1.506-2.617-3.18-3.395-5.021-0.78-1.835-1.189-3.813-1.229-5.934-0.04-2.122 0.343-4.175 1.15-6.16v0c1.004-2.471 2.513-4.535 4.526-6.195 2.013-1.659 4.28-2.761 6.8-3.305z" fill="#000000" data-fill-palette-color="primary"></path><path d="M12.402 86.101L6.527 103.295 5.379 102.903 11.253 85.709ZM14.69 86.883L8.815 104.077 7.667 103.684 13.541 86.491ZM12.68 100.276L11.113 104.862 9.964 104.469 15.839 87.276 16.988 87.668 15.421 92.254 36.051 99.302 35.662 100.442 15.031 93.393 14.639 94.542 35.27 101.591 34.877 102.739 14.246 95.691 13.854 96.839 34.485 103.888 34.095 105.027 13.465 97.979 13.072 99.127 33.703 106.176 33.31 107.325ZM37.462 70.661L36.47 69.961 40.679 63.993C41.317 63.087 41.566 62.114 41.424 61.072 41.276 60.026 40.663 59.123 39.584 58.362V58.362C38.787 57.8 37.836 57.625 36.73 57.835 35.629 58.049 34.782 58.576 34.19 59.416V59.416L28.197 67.914 46.013 80.479 45.314 81.471 26.505 68.206 33.198 58.717C33.985 57.6 35.094 56.908 36.524 56.642 37.957 56.371 39.211 56.613 40.284 57.37V57.37C41.601 58.299 42.366 59.46 42.578 60.851 42.799 62.241 42.497 63.521 41.671 64.692V64.692ZM39.438 72.055L38.446 71.355 42.655 65.386C43.664 63.955 44.029 62.374 43.748 60.642 43.468 58.91 42.545 57.491 40.978 56.386V56.386C39.628 55.434 38.075 55.122 36.318 55.45 34.551 55.779 33.181 56.635 32.206 58.017V58.017L24.813 68.499 44.614 82.463 43.92 83.447 23.127 68.783 31.214 57.317C31.982 56.228 32.987 55.402 34.227 54.84 35.458 54.28 36.744 54.046 38.083 54.138 39.422 54.23 40.62 54.649 41.678 55.394V55.394C43.483 56.668 44.561 58.345 44.911 60.426 45.265 62.503 44.844 64.389 43.647 66.086V66.086ZM41.414 73.448L40.43 72.754 44.639 66.786C45.545 65.501 46.067 64.087 46.205 62.545 46.347 60.997 46.087 59.495 45.426 58.038 44.76 56.578 43.743 55.366 42.377 54.402V54.402C41.141 53.531 39.747 53.039 38.195 52.926 36.648 52.817 35.157 53.089 33.723 53.742 32.293 54.389 31.128 55.349 30.23 56.623V56.623L21.444 69.081 43.221 84.439 42.521 85.431 19.752 69.374 29.238 55.924C30.251 54.487 31.573 53.395 33.205 52.646 34.833 51.903 36.532 51.595 38.301 51.722 40.07 51.85 41.662 52.412 43.077 53.41V53.41C44.709 54.561 45.894 55.925 46.633 57.501 47.376 59.072 47.673 60.706 47.523 62.403V62.403L56.835 65.134 56.095 66.183 47.327 63.665C47.217 64.131 47.121 64.481 47.037 64.714V64.714L55.401 67.167 54.662 68.216 46.579 65.865C46.54 65.967 46.364 66.285 46.052 66.82V66.82L53.962 69.208 53.228 70.249 45.359 67.854 44.728 68.748 52.528 71.241 51.794 72.282 43.983 69.805ZM31.566 67.332L47.407 78.503 46.713 79.487 29.88 67.616 35.174 60.11C35.606 59.498 36.187 59.116 36.918 58.966 37.649 58.816 38.305 58.945 38.885 59.355V59.355C40.478 60.479 40.746 61.791 39.687 63.293V63.293L35.477 69.262 34.485 68.562 38.695 62.593C38.974 62.198 39.089 61.816 39.04 61.449 38.99 61.081 38.705 60.714 38.185 60.347V60.347C37.865 60.121 37.513 60.051 37.128 60.137 36.739 60.228 36.418 60.452 36.166 60.81V60.81ZM74.159 40.656L69.985 43.612 69.687 42.347 73.065 39.955ZM76.358 42.073L70.617 46.14 70.305 44.873 75.234 41.382ZM78.527 43.5L71.251 48.653 70.931 47.392 77.411 42.803ZM58.44 29.67L65.147 57.062 64.075 57.821 56.96 28.718 58.032 27.959 83.117 44.334 82.061 45.082ZM66.202 56.314L60.223 31.93 61.689 32.794 67.258 55.566ZM68.33 54.807L63.174 33.755 64.66 34.751 69.402 54.048ZM70.457 53.3L66.14 35.739 67.643 36.759 71.513 52.553ZM64.407 23.444L89.499 39.814 88.427 40.573 63.351 24.191ZM61.215 25.704L62.279 24.951 87.372 41.32 86.316 42.068ZM59.088 27.211L60.152 26.457 85.244 42.827 84.172 43.586ZM110.891 24.896L102.959 27.199 99.242 14.394C99.242 14.394 101.886 13.626 107.173 12.091V12.091C108.454 11.72 109.738 12.027 111.026 13.014 112.308 14.003 113.204 15.376 113.715 17.135V17.135C114.227 18.899 114.206 20.539 113.651 22.054 113.091 23.577 112.171 24.525 110.891 24.896ZM100.737 15.224L103.777 25.697 110.552 23.731C111.508 23.453 112.181 22.702 112.571 21.476 112.957 20.259 112.94 18.927 112.52 17.481V17.481C112.098 16.029 111.399 14.892 110.421 14.07 109.437 13.251 108.467 12.98 107.512 13.257V13.257ZM97.74 13.576L102.129 28.694 111.226 26.053C112.832 25.587 114 24.446 114.73 22.632 115.452 20.813 115.512 18.865 114.909 16.788V16.788C114.511 15.418 113.88 14.23 113.015 13.224 112.141 12.214 111.157 11.501 110.063 11.087 108.97 10.679 107.895 10.628 106.838 10.935V10.935ZM111.565 27.219L101.302 30.198 96.236 12.749 106.499 9.769C107.761 9.403 109.046 9.451 110.354 9.914 111.668 10.369 112.841 11.175 113.875 12.332 114.9 13.485 115.643 14.855 116.104 16.441V16.441C116.56 18.015 116.665 19.566 116.418 21.095 116.167 22.632 115.609 23.945 114.743 25.032 113.886 26.123 112.826 26.852 111.565 27.219ZM94.732 11.921L100.474 31.702 111.903 28.384C113.381 27.955 114.622 27.115 115.627 25.863 116.637 24.61 117.299 23.116 117.61 21.381 117.928 19.645 117.827 17.882 117.308 16.091V16.091C116.792 14.314 115.934 12.774 114.733 11.472 113.54 10.167 112.177 9.257 110.646 8.742 109.121 8.224 107.626 8.178 106.161 8.603V8.603ZM112.242 29.55L99.656 33.204 93.237 11.091 105.822 7.438C107.504 6.949 109.215 6.988 110.954 7.554 112.693 8.12 114.24 9.128 115.593 10.579 116.954 12.029 117.923 13.751 118.502 15.745 119.081 17.739 119.184 19.712 118.811 21.664 118.445 23.615 117.679 25.295 116.513 26.704 115.347 28.113 113.924 29.062 112.242 29.55ZM91.736 10.273L98.826 34.698 112.577 30.706C113.985 30.298 115.255 29.58 116.387 28.554 117.511 27.523 118.393 26.328 119.035 24.967 119.68 23.599 120.07 22.073 120.203 20.39 120.344 18.712 120.176 17.048 119.697 15.398 119.218 13.748 118.47 12.255 117.454 10.92 116.442 9.577 115.296 8.497 114.016 7.68 112.744 6.868 111.358 6.328 109.857 6.059 108.351 5.799 106.895 5.873 105.487 6.281V6.281ZM112.916 31.872V31.872L97.999 36.203 90.231 9.446 105.148 5.115C107.251 4.505 109.383 4.535 111.547 5.206 113.715 5.868 115.639 7.071 117.319 8.814 119 10.558 120.19 12.637 120.891 15.051V15.051C121.416 16.86 121.598 18.687 121.435 20.53 121.277 22.365 120.837 24.036 120.114 25.545 119.398 27.051 118.412 28.367 117.157 29.491 115.903 30.622 114.489 31.415 112.916 31.872ZM154.574 28.887L155.113 18.742 156.437 16.52 155.776 28.951ZM156.988 29.015L157.774 14.23 159.108 12.009 158.201 29.08ZM159.413 29.144L160.441 9.788 161.766 7.556 160.615 29.208ZM161.776 1.369L151.864 17.991 151.246 16.693 160.414 1.296ZM159.043 1.223L150.613 15.284 149.976 13.965 157.662 1.15ZM141.805 28.208L142.459 15.907 143.54 18.256 143.008 28.272ZM139.381 28.079L140.279 11.177 141.37 13.527 140.593 28.144ZM136.966 27.951L138.109 6.448 139.189 8.808 138.168 28.015ZM137.381 0.072L147.129 21.217 145.768 21.145 137.11 2.37 135.754 27.887 134.542 27.822 136.02 0ZM140.134 0.219L149.862 21.362 148.49 21.289 138.763 0.146ZM161.827 29.272L163.183 3.755 152.584 21.507 151.213 21.434 141.495 0.291 142.857 0.363 151.987 20.19 163.137 1.441 164.518 1.514 163.04 29.337ZM195.719 28.385V28.385L201.725 13.974 202.836 14.437 196.83 28.848C196.175 30.422 194.995 31.511 193.291 32.116 191.583 32.713 189.86 32.649 188.121 31.924 186.382 31.199 185.123 30.021 184.345 28.388 183.569 26.75 183.509 25.144 184.164 23.57V23.57L190.17 9.159 191.291 9.626 185.285 24.037C184.759 25.298 184.817 26.591 185.459 27.915 186.103 29.247 187.145 30.213 188.584 30.813 190.023 31.412 191.44 31.471 192.834 30.988 194.232 30.514 195.193 29.646 195.719 28.385ZM197.951 29.315V29.315L203.957 14.904 205.077 15.371 199.072 29.782C198.622 30.86 197.967 31.794 197.106 32.585 196.241 33.367 195.276 33.957 194.212 34.355 193.148 34.752 192 34.938 190.767 34.913 189.538 34.897 188.345 34.647 187.187 34.165 186.024 33.68 185.004 33.007 184.126 32.146 183.241 31.288 182.564 30.341 182.097 29.306 181.631 28.27 181.373 27.172 181.326 26.009 181.275 24.838 181.474 23.714 181.923 22.636V22.636L187.929 8.225 189.049 8.692 183.044 23.103C182.531 24.334 182.389 25.615 182.617 26.946 182.846 28.277 183.406 29.485 184.299 30.568 185.189 31.658 186.307 32.483 187.654 33.045 188.995 33.603 190.366 33.815 191.766 33.68 193.164 33.551 194.416 33.099 195.522 32.324 196.628 31.549 197.438 30.546 197.951 29.315ZM200.192 30.249V30.249L206.198 15.838 207.309 16.301 201.303 30.712C200.729 32.09 199.896 33.288 198.803 34.306 197.702 35.327 196.481 36.094 195.139 36.606 193.794 37.109 192.342 37.352 190.782 37.334 189.223 37.317 187.714 37.004 186.257 36.397 184.794 35.787 183.507 34.935 182.396 33.839 181.286 32.744 180.439 31.543 179.855 30.236 179.268 28.921 178.953 27.514 178.909 26.015 178.856 24.52 179.117 23.084 179.691 21.706V21.706L185.697 7.295 186.818 7.762 180.812 22.173C180.131 23.808 179.934 25.504 180.221 27.263 180.512 29.015 181.228 30.607 182.371 32.039 183.519 33.474 184.969 34.556 186.72 35.286 188.465 36.013 190.252 36.279 192.079 36.085 193.906 35.891 195.544 35.28 196.993 34.252 198.444 33.218 199.511 31.884 200.192 30.249ZM202.424 31.179V31.179L208.43 16.768 209.55 17.235 203.545 31.646C202.613 33.881 201.165 35.71 199.199 37.133 197.233 38.556 195.017 39.408 192.55 39.688 190.077 39.965 187.668 39.615 185.323 38.638 182.972 37.658 181.027 36.194 179.489 34.245 177.945 32.294 176.987 30.119 176.613 27.721 176.24 25.323 176.519 23.007 177.45 20.772V20.772L183.456 6.361 184.576 6.828 178.571 21.239C177.935 22.764 177.642 24.355 177.691 26.014 177.74 27.673 178.09 29.231 178.74 30.688 179.385 32.142 180.32 33.477 181.545 34.692 182.771 35.907 184.186 36.849 185.79 37.518 187.394 38.186 189.059 38.528 190.785 38.543 192.511 38.558 194.117 38.282 195.604 37.716 197.09 37.149 198.44 36.299 199.652 35.166 200.865 34.033 201.789 32.704 202.424 31.179ZM226.99 43.43V43.43L225.448 42.109C224.793 41.548 224.464 40.974 224.461 40.386 224.463 39.802 224.701 39.233 225.176 38.679V38.679C226.225 37.455 227.663 37.626 229.492 39.193V39.193C231.215 40.669 232.292 42.032 232.723 43.283V43.283L231.497 43.216C231.14 42.429 230.21 41.393 228.709 40.107V40.107C227.978 39.481 227.416 39.144 227.022 39.094 226.632 39.04 226.314 39.156 226.068 39.443 225.817 39.735 225.691 40.02 225.689 40.298 225.687 40.576 225.87 40.872 226.238 41.187V41.187L227.817 42.54C228.971 43.528 229.84 44.614 230.426 45.797 231.02 46.979 231.324 48.164 231.335 49.354 231.352 50.538 231.141 51.707 230.703 52.861 230.26 54.01 229.607 55.088 228.744 56.096V56.096C228.045 56.912 227.267 57.591 226.41 58.132 225.553 58.664 224.629 59.039 223.639 59.256 222.653 59.469 221.643 59.521 220.609 59.413 219.57 59.3 218.494 58.986 217.382 58.469 216.264 57.949 215.182 57.24 214.134 56.342V56.342C212.491 54.935 211.166 53.367 210.157 51.638 209.149 49.91 208.552 48.189 208.368 46.477V46.477L209.575 46.567C209.773 48.09 210.341 49.629 211.28 51.185 212.223 52.735 213.437 54.147 214.923 55.42V55.42C216.092 56.421 217.292 57.157 218.524 57.626 219.755 58.096 220.926 58.299 222.036 58.237 223.15 58.17 224.204 57.888 225.196 57.393 226.188 56.898 227.066 56.204 227.83 55.312V55.312C228.844 54.129 229.521 52.853 229.863 51.486 230.209 50.114 230.15 48.714 229.687 47.286 229.219 45.855 228.32 44.569 226.99 43.43ZM224.665 43.024V43.024L226.123 44.273C227.851 45.753 228.748 47.439 228.814 49.33 228.885 51.225 228.25 52.956 226.908 54.523V54.523C225.544 56.115 223.849 56.947 221.822 57.018 219.795 57.09 217.759 56.25 215.713 54.498V54.498C214.353 53.333 213.241 52.057 212.376 50.67 211.516 49.278 210.984 47.905 210.781 46.552V46.552L211.991 46.592C212.203 47.761 212.703 48.958 213.489 50.181 214.28 51.409 215.282 52.543 216.497 53.584V53.584C218.295 55.124 220.039 55.872 221.73 55.826 223.415 55.776 224.833 55.078 225.986 53.733V53.733C227.125 52.403 227.668 50.964 227.614 49.415 227.565 47.862 226.799 46.451 225.318 45.182V45.182L223.875 43.945C222.631 42.88 221.99 41.741 221.953 40.53 221.911 39.315 222.358 38.161 223.294 37.067 224.227 35.979 225.371 35.423 226.729 35.398 228.083 35.378 229.53 36.028 231.072 37.349V37.349C232.155 38.277 233.052 39.264 233.763 40.31 234.48 41.36 234.939 42.378 235.143 43.365V43.365L233.93 43.296C233.493 41.655 232.277 39.98 230.282 38.271V38.271C228.997 37.17 227.84 36.62 226.809 36.619 225.788 36.618 224.924 37.031 224.216 37.857V37.857C223.5 38.693 223.145 39.551 223.152 40.43 223.163 41.305 223.667 42.169 224.665 43.024ZM223.085 44.867V44.867L224.491 46.072C225.735 47.137 226.372 48.281 226.4 49.502 226.433 50.727 225.991 51.877 225.071 52.95V52.95C224.139 54.038 222.994 54.594 221.636 54.619 220.278 54.635 218.828 53.982 217.286 52.662V52.662C216.208 51.738 215.311 50.751 214.595 49.701 213.873 48.646 213.411 47.626 213.208 46.639V46.639L214.42 46.708C214.857 48.349 216.076 50.026 218.076 51.74V51.74C219.366 52.845 220.523 53.395 221.549 53.391 222.575 53.396 223.442 52.986 224.149 52.16 224.857 51.334 225.207 50.476 225.2 49.588 225.188 48.704 224.683 47.835 223.686 46.981V46.981L222.295 45.789C220.547 44.292 219.631 42.598 219.546 40.709 219.457 38.825 220.094 37.086 221.458 35.494 222.822 33.902 224.515 33.068 226.536 32.992 228.563 32.92 230.599 33.76 232.645 35.513V35.513C234.01 36.682 235.123 37.958 235.982 39.341 236.837 40.729 237.367 42.099 237.57 43.452V43.452L236.36 43.412C236.147 42.243 235.651 41.048 234.869 39.829 234.083 38.605 233.081 37.471 231.862 36.427V36.427C230.063 34.886 228.321 34.141 226.636 34.191 224.946 34.237 223.525 34.932 222.372 36.278V36.278C221.224 37.618 220.682 39.062 220.745 40.609 220.804 42.162 221.584 43.581 223.085 44.867ZM221.512 46.704V46.704L222.918 47.908C223.573 48.469 223.897 49.044 223.891 49.632 223.889 50.225 223.656 50.794 223.19 51.338V51.338C222.141 52.562 220.7 52.389 218.866 50.818V50.818C217.138 49.337 216.058 47.972 215.628 46.721V46.721L216.854 46.788C217.211 47.575 218.143 48.613 219.649 49.903V49.903C220.385 50.533 220.95 50.873 221.344 50.923 221.734 50.977 222.052 50.861 222.298 50.574V50.574C222.54 50.292 222.661 50.007 222.662 49.72 222.664 49.433 222.476 49.128 222.098 48.804V48.804L220.722 47.626C219.543 46.616 218.644 45.514 218.025 44.32 217.401 43.121 217.076 41.925 217.05 40.732 217.014 39.54 217.212 38.36 217.644 37.193 218.081 36.03 218.738 34.937 219.614 33.915V33.915C220.313 33.099 221.094 32.422 221.956 31.885 222.808 31.349 223.732 30.974 224.727 30.761 225.713 30.548 226.722 30.496 227.756 30.604 228.79 30.713 229.866 31.027 230.984 31.548 232.096 32.064 233.177 32.771 234.224 33.669V33.669C235.872 35.08 237.197 36.648 238.201 38.372 239.204 40.096 239.798 41.815 239.982 43.527V43.527L238.775 43.437C238.573 41.91 238.007 40.372 237.079 38.826 236.14 37.28 234.926 35.868 233.435 34.591V34.591C232.271 33.594 231.073 32.86 229.842 32.391 228.611 31.921 227.44 31.718 226.33 31.78 225.215 31.847 224.162 32.129 223.17 32.624 222.178 33.119 221.3 33.813 220.536 34.705V34.705C219.505 35.909 218.819 37.199 218.478 38.575 218.142 39.956 218.22 41.364 218.712 42.799 219.214 44.233 220.147 45.534 221.512 46.704ZM234.783 76.909L257.138 60.28 257.856 61.247 235.501 77.876ZM233.334 74.961L255.689 58.332 256.413 59.306 234.058 75.935ZM231.891 73.021L254.246 56.392 254.964 57.358 232.609 73.987ZM230.442 71.073L252.796 54.444 253.521 55.418 231.166 72.047ZM265.978 100.362V100.362L264.999 99.683C265.606 98.789 265.972 97.793 266.096 96.693 266.223 95.599 266.075 94.525 265.654 93.472V93.472C264.971 91.766 263.782 90.552 262.085 89.831 260.395 89.107 258.697 89.086 256.991 89.769 255.285 90.451 254.07 91.638 253.346 93.328 252.616 95.021 252.592 96.72 253.275 98.426V98.426C253.696 99.479 254.333 100.357 255.186 101.059 256.034 101.769 256.99 102.237 258.052 102.463V102.463L257.758 103.631C256.513 103.357 255.39 102.802 254.391 101.966 253.394 101.136 252.65 100.105 252.157 98.873V98.873C251.762 97.888 251.576 96.869 251.598 95.817 251.624 94.757 251.833 93.769 252.224 92.855 252.619 91.932 253.19 91.1 253.937 90.359 254.681 89.611 255.548 89.038 256.54 88.642 257.531 88.245 258.554 88.06 259.609 88.089 260.661 88.111 261.648 88.319 262.571 88.715 263.485 89.106 264.317 89.677 265.068 90.427 265.809 91.173 266.377 92.039 266.772 93.025V93.025C267.27 94.269 267.441 95.536 267.286 96.827 267.14 98.122 266.704 99.3 265.978 100.362ZM268.005 101.705V101.705L267.022 101.016C267.833 99.792 268.327 98.437 268.504 96.951 268.672 95.462 268.471 94.003 267.899 92.574V92.574C267.288 91.046 266.344 89.788 265.069 88.797 263.803 87.811 262.371 87.198 260.775 86.958 259.184 86.715 257.622 86.901 256.089 87.514 254.555 88.128 253.297 89.071 252.312 90.344 251.322 91.619 250.709 93.051 250.473 94.639 250.233 96.235 250.418 97.797 251.03 99.324V99.324C251.601 100.753 252.466 101.95 253.624 102.916 254.78 103.875 256.082 104.512 257.529 104.826V104.826L257.252 106.009C255.615 105.649 254.142 104.924 252.834 103.833 251.528 102.748 250.551 101.395 249.903 99.775V99.775C249.213 98.051 249.001 96.281 249.268 94.467 249.537 92.658 250.234 91.033 251.357 89.59 252.483 88.154 253.911 87.089 255.642 86.397 257.372 85.704 259.14 85.489 260.946 85.753 262.755 86.022 264.38 86.719 265.823 87.842 267.268 88.971 268.336 90.398 269.026 92.123V92.123C269.674 93.742 269.9 95.396 269.703 97.082 269.509 98.775 268.943 100.316 268.006 101.705ZM270.003 103.082V103.082L269.016 102.383C270.059 100.83 270.689 99.109 270.906 97.222 271.126 95.326 270.875 93.476 270.153 91.672V91.672C269.574 90.224 268.737 88.955 267.643 87.864 266.553 86.764 265.339 85.928 264.003 85.355 262.668 84.789 261.229 84.486 259.684 84.447 258.136 84.416 256.638 84.69 255.19 85.27 253.743 85.849 252.47 86.684 251.37 87.774 250.278 88.868 249.445 90.08 248.87 91.411 248.298 92.747 247.996 94.19 247.965 95.738 247.926 97.283 248.196 98.779 248.776 100.226V100.226C249.503 102.043 250.599 103.559 252.063 104.773 253.526 105.982 255.174 106.787 257.007 107.189V107.189L256.694 108.365C254.68 107.92 252.869 107.027 251.26 105.684 249.654 104.333 248.454 102.663 247.658 100.674V100.674C246.805 98.543 246.543 96.361 246.871 94.129 247.204 91.888 248.064 89.879 249.454 88.101 250.84 86.317 252.602 84.998 254.739 84.143 256.877 83.287 259.062 83.027 261.297 83.362 263.529 83.69 265.539 84.551 267.325 85.944 269.103 87.333 270.418 89.093 271.271 91.224V91.224C272.072 93.226 272.351 95.272 272.109 97.362 271.866 99.453 271.165 101.359 270.003 103.082ZM272.023 104.406V104.406L271.04 103.717C272.301 101.833 273.061 99.75 273.319 97.468 273.577 95.185 273.27 92.954 272.398 90.773V90.773C271.698 89.024 270.687 87.489 269.365 86.167 268.047 84.837 266.578 83.828 264.959 83.139 263.338 82.445 261.593 82.075 259.724 82.03 257.85 81.987 256.038 82.316 254.288 83.015 252.539 83.715 251.001 84.728 249.673 86.052 248.352 87.374 247.344 88.846 246.649 90.467 245.952 92.082 245.585 93.826 245.549 95.698 245.503 97.567 245.831 99.376 246.531 101.125V101.125C247.403 103.305 248.728 105.133 250.504 106.608 252.275 108.086 254.269 109.071 256.488 109.562V109.562L256.157 110.745C253.767 110.201 251.616 109.129 249.704 107.529 247.784 105.925 246.35 103.941 245.404 101.576V101.576C244.642 99.673 244.286 97.704 244.336 95.669 244.389 93.64 244.792 91.746 245.546 89.987 246.299 88.227 247.394 86.632 248.829 85.2 250.267 83.76 251.938 82.659 253.841 81.898 255.744 81.136 257.713 80.78 259.748 80.831 261.775 80.877 263.667 81.277 265.427 82.031 267.186 82.784 268.784 83.877 270.222 85.31 271.662 86.748 272.763 88.419 273.525 90.322V90.322C274.476 92.7 274.809 95.128 274.522 97.608 274.232 100.096 273.399 102.362 272.023 104.406Z" fill="#000000" data-fill-palette-color="primary"></path><path d="M12.515 141.566c0-1.84 1.492-3.332 3.333-3.332 1.84 0 3.332 1.492 3.332 3.332 0 1.84-1.492 3.332-3.332 3.332-1.84 0-3.332-1.492-3.333-3.332zM263.274 141.566c0-1.84 1.492-3.332 3.332-3.332 1.84 0 3.332 1.492 3.332 3.332 0 1.84-1.492 3.332-3.332 3.332-1.84 0-3.332-1.492-3.332-3.332z" fill="#000000" data-fill-palette-color="primary"></path></svg></g></svg></g></svg></g></svg></g><defs></defs></svg><rect width="280" height="280" fill="none" stroke="none" visibility="hidden"></rect></g></svg></g></svg>